<mxfile host="app.diagrams.net" agent="Mozilla/5.0 (Windows NT 10.0; Win64; x64) AppleWebKit/537.36 (KHTML, like Gecko) Chrome/134.0.0.0 Safari/537.36" version="26.1.3">
  <diagram name="Page-1" id="74e2e168-ea6b-b213-b513-2b3c1d86103e">
    <mxGraphModel dx="1500" dy="796" grid="1" gridSize="10" guides="1" tooltips="1" connect="1" arrows="1" fold="1" page="1" pageScale="1" pageWidth="1100" pageHeight="850" background="none" math="0" shadow="0">
      <root>
        <mxCell id="0" />
        <mxCell id="1" parent="0" />
        <mxCell id="urim3Smq5EnJUSF81W1--1" value="&lt;font style=&quot;font-size: 18px;&quot;&gt;取消发布的检修计划&lt;/font&gt;" style="swimlane;html=1;childLayout=stackLayout;startSize=20;rounded=0;shadow=0;labelBackgroundColor=none;strokeWidth=1;fontFamily=Verdana;fontSize=8;align=center;" vertex="1" parent="1">
          <mxGeometry x="70" y="20" width="960" height="1240" as="geometry" />
        </mxCell>
        <mxCell id="urim3Smq5EnJUSF81W1--2" value="接收请求" style="swimlane;html=1;startSize=20;" vertex="1" parent="urim3Smq5EnJUSF81W1--1">
          <mxGeometry y="20" width="160" height="1220" as="geometry">
            <mxRectangle y="20" width="40" height="730" as="alternateBounds" />
          </mxGeometry>
        </mxCell>
        <mxCell id="urim3Smq5EnJUSF81W1--3" style="edgeStyle=orthogonalEdgeStyle;rounded=0;orthogonalLoop=1;jettySize=auto;html=1;exitX=0.5;exitY=1;exitDx=0;exitDy=0;entryX=0.5;entryY=0;entryDx=0;entryDy=0;" edge="1" parent="urim3Smq5EnJUSF81W1--2" source="urim3Smq5EnJUSF81W1--4" target="urim3Smq5EnJUSF81W1--5">
          <mxGeometry relative="1" as="geometry" />
        </mxCell>
        <mxCell id="urim3Smq5EnJUSF81W1--4" value="&lt;font style=&quot;font-size: 12px;&quot;&gt;开始&lt;/font&gt;" style="rounded=1;whiteSpace=wrap;html=1;shadow=0;labelBackgroundColor=none;strokeWidth=1;fontFamily=Verdana;fontSize=8;align=center;" vertex="1" parent="urim3Smq5EnJUSF81W1--2">
          <mxGeometry x="20" y="60" width="100" height="60" as="geometry" />
        </mxCell>
        <mxCell id="urim3Smq5EnJUSF81W1--5" value="&lt;font style=&quot;font-size: 12px;&quot;&gt;参数验证&lt;/font&gt;" style="rhombus;whiteSpace=wrap;html=1;rounded=0;shadow=0;labelBackgroundColor=none;strokeWidth=1;fontFamily=Verdana;fontSize=8;align=center;" vertex="1" parent="urim3Smq5EnJUSF81W1--2">
          <mxGeometry x="20" y="160" width="100" height="75" as="geometry" />
        </mxCell>
        <mxCell id="urim3Smq5EnJUSF81W1--6" style="edgeStyle=orthogonalEdgeStyle;rounded=0;orthogonalLoop=1;jettySize=auto;html=1;exitX=0.5;exitY=1;exitDx=0;exitDy=0;entryX=0.5;entryY=0;entryDx=0;entryDy=0;" edge="1" parent="urim3Smq5EnJUSF81W1--2" source="urim3Smq5EnJUSF81W1--5" target="urim3Smq5EnJUSF81W1--8">
          <mxGeometry relative="1" as="geometry">
            <mxPoint x="70" y="980" as="targetPoint" />
          </mxGeometry>
        </mxCell>
        <mxCell id="urim3Smq5EnJUSF81W1--7" value="否" style="edgeLabel;html=1;align=center;verticalAlign=middle;resizable=0;points=[];" vertex="1" connectable="0" parent="urim3Smq5EnJUSF81W1--6">
          <mxGeometry x="-0.24" y="-1" relative="1" as="geometry">
            <mxPoint as="offset" />
          </mxGeometry>
        </mxCell>
        <mxCell id="urim3Smq5EnJUSF81W1--8" value="&lt;span style=&quot;font-size: 12px;&quot;&gt;失败返回&lt;/span&gt;" style="whiteSpace=wrap;html=1;fontSize=8;fontFamily=Verdana;rounded=0;shadow=0;labelBackgroundColor=none;strokeWidth=1;" vertex="1" parent="urim3Smq5EnJUSF81W1--2">
          <mxGeometry x="20" y="1140" width="100" height="60" as="geometry" />
        </mxCell>
        <mxCell id="urim3Smq5EnJUSF81W1--9" value="新增检修计划变更记录" style="swimlane;html=1;startSize=20;" vertex="1" parent="urim3Smq5EnJUSF81W1--1">
          <mxGeometry x="160" y="20" width="160" height="1220" as="geometry" />
        </mxCell>
        <mxCell id="urim3Smq5EnJUSF81W1--68" style="edgeStyle=orthogonalEdgeStyle;rounded=0;orthogonalLoop=1;jettySize=auto;html=1;exitX=0.5;exitY=1;exitDx=0;exitDy=0;" edge="1" parent="urim3Smq5EnJUSF81W1--9" source="urim3Smq5EnJUSF81W1--11" target="urim3Smq5EnJUSF81W1--16">
          <mxGeometry relative="1" as="geometry" />
        </mxCell>
        <mxCell id="urim3Smq5EnJUSF81W1--11" value="&lt;span style=&quot;font-size: 12px;&quot;&gt;新增&lt;/span&gt;&lt;div&gt;&lt;span style=&quot;font-size: 12px;&quot;&gt;检修计划变更记录&lt;/span&gt;&lt;/div&gt;" style="whiteSpace=wrap;html=1;fontSize=8;fontFamily=Verdana;rounded=0;shadow=0;labelBackgroundColor=none;strokeWidth=1;" vertex="1" parent="urim3Smq5EnJUSF81W1--9">
          <mxGeometry x="30" y="167.5" width="100" height="60" as="geometry" />
        </mxCell>
        <mxCell id="urim3Smq5EnJUSF81W1--16" value="&lt;span style=&quot;font-size: 12px;&quot;&gt;是否为&lt;/span&gt;&lt;div&gt;&lt;span style=&quot;font-size: 12px;&quot;&gt;月检修计划&lt;/span&gt;&lt;/div&gt;" style="rhombus;whiteSpace=wrap;html=1;rounded=0;shadow=0;labelBackgroundColor=none;strokeWidth=1;fontFamily=Verdana;fontSize=8;align=center;" vertex="1" parent="urim3Smq5EnJUSF81W1--9">
          <mxGeometry x="30" y="270" width="100" height="75" as="geometry" />
        </mxCell>
        <mxCell id="urim3Smq5EnJUSF81W1--17" value="&lt;span style=&quot;font-size: 12px;&quot;&gt;是否为&lt;/span&gt;&lt;div&gt;&lt;span style=&quot;font-size: 12px;&quot;&gt;周、临时、日期停电、抢修计划&lt;/span&gt;&lt;/div&gt;" style="rhombus;whiteSpace=wrap;html=1;rounded=0;shadow=0;labelBackgroundColor=none;strokeWidth=1;fontFamily=Verdana;fontSize=8;align=center;" vertex="1" parent="urim3Smq5EnJUSF81W1--9">
          <mxGeometry x="30" y="385" width="100" height="75" as="geometry" />
        </mxCell>
        <mxCell id="urim3Smq5EnJUSF81W1--18" style="edgeStyle=orthogonalEdgeStyle;rounded=0;orthogonalLoop=1;jettySize=auto;html=1;exitX=0.5;exitY=1;exitDx=0;exitDy=0;" edge="1" parent="urim3Smq5EnJUSF81W1--9" source="urim3Smq5EnJUSF81W1--16" target="urim3Smq5EnJUSF81W1--17">
          <mxGeometry relative="1" as="geometry" />
        </mxCell>
        <mxCell id="urim3Smq5EnJUSF81W1--19" value="&lt;font style=&quot;font-size: 10px;&quot;&gt;否&lt;/font&gt;" style="edgeLabel;html=1;align=center;verticalAlign=middle;resizable=0;points=[];" vertex="1" connectable="0" parent="urim3Smq5EnJUSF81W1--18">
          <mxGeometry x="-0.4155" relative="1" as="geometry">
            <mxPoint as="offset" />
          </mxGeometry>
        </mxCell>
        <mxCell id="urim3Smq5EnJUSF81W1--22" value="取消月计划的对应周计划" style="swimlane;html=1;startSize=20;" vertex="1" parent="urim3Smq5EnJUSF81W1--1">
          <mxGeometry x="320" y="20" width="160" height="1220" as="geometry" />
        </mxCell>
        <mxCell id="urim3Smq5EnJUSF81W1--23" style="edgeStyle=orthogonalEdgeStyle;rounded=0;orthogonalLoop=1;jettySize=auto;html=1;exitX=0.5;exitY=1;exitDx=0;exitDy=0;entryX=0.5;entryY=0;entryDx=0;entryDy=0;" edge="1" parent="urim3Smq5EnJUSF81W1--22" target="urim3Smq5EnJUSF81W1--78">
          <mxGeometry relative="1" as="geometry">
            <mxPoint x="80" y="330" as="sourcePoint" />
            <mxPoint x="80" y="370" as="targetPoint" />
          </mxGeometry>
        </mxCell>
        <mxCell id="urim3Smq5EnJUSF81W1--81" value="是" style="edgeLabel;html=1;align=center;verticalAlign=middle;resizable=0;points=[];" vertex="1" connectable="0" parent="urim3Smq5EnJUSF81W1--23">
          <mxGeometry x="0.0183" relative="1" as="geometry">
            <mxPoint as="offset" />
          </mxGeometry>
        </mxCell>
        <mxCell id="urim3Smq5EnJUSF81W1--73" style="edgeStyle=orthogonalEdgeStyle;rounded=0;orthogonalLoop=1;jettySize=auto;html=1;exitX=0.5;exitY=1;exitDx=0;exitDy=0;entryX=0.5;entryY=0;entryDx=0;entryDy=0;" edge="1" parent="urim3Smq5EnJUSF81W1--22" source="urim3Smq5EnJUSF81W1--69" target="urim3Smq5EnJUSF81W1--72">
          <mxGeometry relative="1" as="geometry" />
        </mxCell>
        <mxCell id="urim3Smq5EnJUSF81W1--82" value="查到" style="edgeLabel;html=1;align=center;verticalAlign=middle;resizable=0;points=[];" vertex="1" connectable="0" parent="urim3Smq5EnJUSF81W1--73">
          <mxGeometry x="-0.4331" y="1" relative="1" as="geometry">
            <mxPoint as="offset" />
          </mxGeometry>
        </mxCell>
        <mxCell id="urim3Smq5EnJUSF81W1--74" style="edgeStyle=orthogonalEdgeStyle;rounded=0;orthogonalLoop=1;jettySize=auto;html=1;exitX=0;exitY=0.5;exitDx=0;exitDy=0;" edge="1" parent="urim3Smq5EnJUSF81W1--22" source="urim3Smq5EnJUSF81W1--69">
          <mxGeometry relative="1" as="geometry">
            <mxPoint x="-250" y="520" as="targetPoint" />
            <Array as="points">
              <mxPoint x="10" y="198" />
              <mxPoint x="10" y="520" />
              <mxPoint x="-250" y="520" />
            </Array>
          </mxGeometry>
        </mxCell>
        <mxCell id="urim3Smq5EnJUSF81W1--75" value="&lt;font style=&quot;font-size: 10px;&quot;&gt;未查到&lt;/font&gt;" style="edgeLabel;html=1;align=center;verticalAlign=middle;resizable=0;points=[];" vertex="1" connectable="0" parent="urim3Smq5EnJUSF81W1--74">
          <mxGeometry x="-0.9614" y="4" relative="1" as="geometry">
            <mxPoint x="2" y="18" as="offset" />
          </mxGeometry>
        </mxCell>
        <mxCell id="urim3Smq5EnJUSF81W1--69" value="&lt;span style=&quot;font-size: 12px;&quot;&gt;查询&lt;/span&gt;&lt;div&gt;&lt;span style=&quot;font-size: 12px;&quot;&gt;对应的周计划&lt;/span&gt;&lt;/div&gt;" style="rhombus;whiteSpace=wrap;html=1;rounded=0;shadow=0;labelBackgroundColor=none;strokeWidth=1;fontFamily=Verdana;fontSize=8;align=center;" vertex="1" parent="urim3Smq5EnJUSF81W1--22">
          <mxGeometry x="30" y="160" width="100" height="75" as="geometry" />
        </mxCell>
        <mxCell id="urim3Smq5EnJUSF81W1--76" style="edgeStyle=orthogonalEdgeStyle;rounded=0;orthogonalLoop=1;jettySize=auto;html=1;exitX=0;exitY=0.5;exitDx=0;exitDy=0;" edge="1" parent="urim3Smq5EnJUSF81W1--22" source="urim3Smq5EnJUSF81W1--72">
          <mxGeometry relative="1" as="geometry">
            <mxPoint x="10" y="308" as="targetPoint" />
          </mxGeometry>
        </mxCell>
        <mxCell id="urim3Smq5EnJUSF81W1--77" value="&lt;font style=&quot;font-size: 10px;&quot;&gt;否&lt;/font&gt;" style="edgeLabel;html=1;align=center;verticalAlign=middle;resizable=0;points=[];" vertex="1" connectable="0" parent="urim3Smq5EnJUSF81W1--76">
          <mxGeometry x="-0.3171" relative="1" as="geometry">
            <mxPoint as="offset" />
          </mxGeometry>
        </mxCell>
        <mxCell id="urim3Smq5EnJUSF81W1--72" value="&lt;span style=&quot;font-size: 12px;&quot;&gt;计划状态为&lt;/span&gt;&lt;div&gt;&lt;span style=&quot;font-size: 12px;&quot;&gt;编制、调度退回、&lt;/span&gt;&lt;/div&gt;&lt;div&gt;&lt;span style=&quot;font-size: 12px;&quot;&gt;已取消、不停电作业受理&lt;/span&gt;&lt;/div&gt;" style="rhombus;whiteSpace=wrap;html=1;rounded=0;shadow=0;labelBackgroundColor=none;strokeWidth=1;fontFamily=Verdana;fontSize=8;align=center;" vertex="1" parent="urim3Smq5EnJUSF81W1--22">
          <mxGeometry x="30" y="270" width="100" height="75" as="geometry" />
        </mxCell>
        <mxCell id="urim3Smq5EnJUSF81W1--80" style="edgeStyle=orthogonalEdgeStyle;rounded=0;orthogonalLoop=1;jettySize=auto;html=1;exitX=0.5;exitY=1;exitDx=0;exitDy=0;" edge="1" parent="urim3Smq5EnJUSF81W1--22" source="urim3Smq5EnJUSF81W1--78" target="urim3Smq5EnJUSF81W1--79">
          <mxGeometry relative="1" as="geometry" />
        </mxCell>
        <mxCell id="urim3Smq5EnJUSF81W1--78" value="&lt;span style=&quot;font-size: 12px;&quot;&gt;更新&lt;/span&gt;&lt;div&gt;&lt;span style=&quot;font-size: 12px;&quot;&gt;对应周计划的&lt;/span&gt;&lt;/div&gt;&lt;div&gt;&lt;span style=&quot;font-size: 12px;&quot;&gt;状态为已取消&lt;/span&gt;&lt;/div&gt;" style="whiteSpace=wrap;html=1;fontSize=8;fontFamily=Verdana;rounded=0;shadow=0;labelBackgroundColor=none;strokeWidth=1;" vertex="1" parent="urim3Smq5EnJUSF81W1--22">
          <mxGeometry x="30" y="380" width="100" height="60" as="geometry" />
        </mxCell>
        <mxCell id="urim3Smq5EnJUSF81W1--83" style="edgeStyle=orthogonalEdgeStyle;rounded=0;orthogonalLoop=1;jettySize=auto;html=1;exitX=0;exitY=0.5;exitDx=0;exitDy=0;" edge="1" parent="urim3Smq5EnJUSF81W1--22" source="urim3Smq5EnJUSF81W1--79">
          <mxGeometry relative="1" as="geometry">
            <mxPoint x="10" y="517.3793103448276" as="targetPoint" />
          </mxGeometry>
        </mxCell>
        <mxCell id="urim3Smq5EnJUSF81W1--84" value="&lt;font style=&quot;font-size: 10px;&quot;&gt;未查到&lt;/font&gt;" style="edgeLabel;html=1;align=center;verticalAlign=middle;resizable=0;points=[];" vertex="1" connectable="0" parent="urim3Smq5EnJUSF81W1--83">
          <mxGeometry x="-0.3014" y="-1" relative="1" as="geometry">
            <mxPoint x="-3" y="14" as="offset" />
          </mxGeometry>
        </mxCell>
        <mxCell id="urim3Smq5EnJUSF81W1--86" style="edgeStyle=orthogonalEdgeStyle;rounded=0;orthogonalLoop=1;jettySize=auto;html=1;exitX=0.5;exitY=1;exitDx=0;exitDy=0;entryX=0.5;entryY=0;entryDx=0;entryDy=0;" edge="1" parent="urim3Smq5EnJUSF81W1--22" source="urim3Smq5EnJUSF81W1--79" target="urim3Smq5EnJUSF81W1--85">
          <mxGeometry relative="1" as="geometry" />
        </mxCell>
        <mxCell id="urim3Smq5EnJUSF81W1--87" value="查到" style="edgeLabel;html=1;align=center;verticalAlign=middle;resizable=0;points=[];" vertex="1" connectable="0" parent="urim3Smq5EnJUSF81W1--86">
          <mxGeometry x="-0.2887" y="-1" relative="1" as="geometry">
            <mxPoint as="offset" />
          </mxGeometry>
        </mxCell>
        <mxCell id="urim3Smq5EnJUSF81W1--79" value="&lt;span style=&quot;font-size: 12px;&quot;&gt;查询&lt;/span&gt;&lt;div&gt;&lt;span style=&quot;font-size: 12px;&quot;&gt;对应周计划的&lt;/span&gt;&lt;/div&gt;&lt;div&gt;&lt;span style=&quot;font-size: 12px;&quot;&gt;关联任务&lt;/span&gt;&lt;/div&gt;" style="rhombus;whiteSpace=wrap;html=1;rounded=0;shadow=0;labelBackgroundColor=none;strokeWidth=1;fontFamily=Verdana;fontSize=8;align=center;" vertex="1" parent="urim3Smq5EnJUSF81W1--22">
          <mxGeometry x="30" y="480" width="100" height="75" as="geometry" />
        </mxCell>
        <mxCell id="urim3Smq5EnJUSF81W1--89" style="edgeStyle=orthogonalEdgeStyle;rounded=0;orthogonalLoop=1;jettySize=auto;html=1;exitX=0.5;exitY=1;exitDx=0;exitDy=0;entryX=0.5;entryY=0;entryDx=0;entryDy=0;" edge="1" parent="urim3Smq5EnJUSF81W1--22" source="urim3Smq5EnJUSF81W1--85" target="urim3Smq5EnJUSF81W1--88">
          <mxGeometry relative="1" as="geometry" />
        </mxCell>
        <mxCell id="urim3Smq5EnJUSF81W1--85" value="&lt;span style=&quot;font-size: 12px;&quot;&gt;更新关联任务状态为验收未通过&lt;/span&gt;&lt;div&gt;&lt;span style=&quot;font-size: 12px;&quot;&gt;删除任务与计划关系&lt;/span&gt;&lt;/div&gt;" style="whiteSpace=wrap;html=1;fontSize=8;fontFamily=Verdana;rounded=0;shadow=0;labelBackgroundColor=none;strokeWidth=1;" vertex="1" parent="urim3Smq5EnJUSF81W1--22">
          <mxGeometry x="30" y="590" width="100" height="60" as="geometry" />
        </mxCell>
        <mxCell id="urim3Smq5EnJUSF81W1--92" style="edgeStyle=orthogonalEdgeStyle;rounded=0;orthogonalLoop=1;jettySize=auto;html=1;exitX=0.5;exitY=1;exitDx=0;exitDy=0;entryX=0.5;entryY=0;entryDx=0;entryDy=0;" edge="1" parent="urim3Smq5EnJUSF81W1--22" source="urim3Smq5EnJUSF81W1--88" target="urim3Smq5EnJUSF81W1--91">
          <mxGeometry relative="1" as="geometry" />
        </mxCell>
        <mxCell id="urim3Smq5EnJUSF81W1--88" value="&lt;span style=&quot;font-size: 12px;&quot;&gt;删除&lt;/span&gt;&lt;div&gt;&lt;span style=&quot;font-size: 12px;&quot;&gt;检修派发关系记录&lt;/span&gt;&lt;/div&gt;" style="whiteSpace=wrap;html=1;fontSize=8;fontFamily=Verdana;rounded=0;shadow=0;labelBackgroundColor=none;strokeWidth=1;" vertex="1" parent="urim3Smq5EnJUSF81W1--22">
          <mxGeometry x="30" y="690" width="100" height="60" as="geometry" />
        </mxCell>
        <mxCell id="urim3Smq5EnJUSF81W1--91" value="&lt;span style=&quot;font-size: 12px; background-color: transparent; color: light-dark(rgb(0, 0, 0), rgb(255, 255, 255));&quot;&gt;发送消息到mq&lt;/span&gt;" style="whiteSpace=wrap;html=1;fontSize=8;fontFamily=Verdana;rounded=0;shadow=0;labelBackgroundColor=none;strokeWidth=1;" vertex="1" parent="urim3Smq5EnJUSF81W1--22">
          <mxGeometry x="30" y="790" width="100" height="60" as="geometry" />
        </mxCell>
        <mxCell id="urim3Smq5EnJUSF81W1--39" value="取消月计划" style="swimlane;html=1;startSize=20;" vertex="1" parent="urim3Smq5EnJUSF81W1--1">
          <mxGeometry x="480" y="20" width="160" height="1220" as="geometry" />
        </mxCell>
        <mxCell id="urim3Smq5EnJUSF81W1--43" style="edgeStyle=orthogonalEdgeStyle;rounded=0;orthogonalLoop=1;jettySize=auto;html=1;exitX=0.5;exitY=1;exitDx=0;exitDy=0;" edge="1" parent="urim3Smq5EnJUSF81W1--39" source="urim3Smq5EnJUSF81W1--44">
          <mxGeometry relative="1" as="geometry">
            <mxPoint x="80" y="270" as="targetPoint" />
          </mxGeometry>
        </mxCell>
        <mxCell id="urim3Smq5EnJUSF81W1--44" value="&lt;span style=&quot;font-size: 12px;&quot;&gt;更新&lt;/span&gt;&lt;div&gt;&lt;span style=&quot;font-size: 12px;&quot;&gt;月计划的&lt;/span&gt;&lt;/div&gt;&lt;div&gt;&lt;span style=&quot;font-size: 12px;&quot;&gt;状态为已取消&lt;/span&gt;&lt;/div&gt;" style="whiteSpace=wrap;html=1;fontSize=8;fontFamily=Verdana;rounded=0;shadow=0;labelBackgroundColor=none;strokeWidth=1;" vertex="1" parent="urim3Smq5EnJUSF81W1--39">
          <mxGeometry x="30" y="170" width="100" height="60" as="geometry" />
        </mxCell>
        <mxCell id="urim3Smq5EnJUSF81W1--94" style="edgeStyle=orthogonalEdgeStyle;rounded=0;orthogonalLoop=1;jettySize=auto;html=1;exitX=0;exitY=0.5;exitDx=0;exitDy=0;" edge="1" parent="urim3Smq5EnJUSF81W1--39" source="urim3Smq5EnJUSF81W1--93">
          <mxGeometry relative="1" as="geometry">
            <mxPoint x="-410" y="970" as="targetPoint" />
            <Array as="points">
              <mxPoint x="10" y="307" />
              <mxPoint x="10" y="970" />
            </Array>
          </mxGeometry>
        </mxCell>
        <mxCell id="urim3Smq5EnJUSF81W1--95" value="&lt;font style=&quot;font-size: 10px;&quot;&gt;未查到&lt;/font&gt;" style="edgeLabel;html=1;align=center;verticalAlign=middle;resizable=0;points=[];" vertex="1" connectable="0" parent="urim3Smq5EnJUSF81W1--94">
          <mxGeometry x="-0.9278" y="1" relative="1" as="geometry">
            <mxPoint x="9" y="3" as="offset" />
          </mxGeometry>
        </mxCell>
        <mxCell id="urim3Smq5EnJUSF81W1--98" style="edgeStyle=orthogonalEdgeStyle;rounded=0;orthogonalLoop=1;jettySize=auto;html=1;exitX=0.5;exitY=1;exitDx=0;exitDy=0;entryX=0.5;entryY=0;entryDx=0;entryDy=0;" edge="1" parent="urim3Smq5EnJUSF81W1--39" source="urim3Smq5EnJUSF81W1--93" target="urim3Smq5EnJUSF81W1--96">
          <mxGeometry relative="1" as="geometry" />
        </mxCell>
        <mxCell id="urim3Smq5EnJUSF81W1--105" value="查到" style="edgeLabel;html=1;align=center;verticalAlign=middle;resizable=0;points=[];" vertex="1" connectable="0" parent="urim3Smq5EnJUSF81W1--98">
          <mxGeometry x="-0.4762" y="-1" relative="1" as="geometry">
            <mxPoint as="offset" />
          </mxGeometry>
        </mxCell>
        <mxCell id="urim3Smq5EnJUSF81W1--93" value="&lt;span style=&quot;font-size: 12px;&quot;&gt;查询&lt;/span&gt;&lt;div&gt;&lt;span style=&quot;font-size: 12px;&quot;&gt;对应月计划的&lt;/span&gt;&lt;/div&gt;&lt;div&gt;&lt;span style=&quot;font-size: 12px;&quot;&gt;关联任务&lt;/span&gt;&lt;/div&gt;" style="rhombus;whiteSpace=wrap;html=1;rounded=0;shadow=0;labelBackgroundColor=none;strokeWidth=1;fontFamily=Verdana;fontSize=8;align=center;" vertex="1" parent="urim3Smq5EnJUSF81W1--39">
          <mxGeometry x="30" y="270" width="100" height="75" as="geometry" />
        </mxCell>
        <mxCell id="urim3Smq5EnJUSF81W1--100" style="edgeStyle=orthogonalEdgeStyle;rounded=0;orthogonalLoop=1;jettySize=auto;html=1;exitX=0.5;exitY=1;exitDx=0;exitDy=0;" edge="1" parent="urim3Smq5EnJUSF81W1--39" source="urim3Smq5EnJUSF81W1--96" target="urim3Smq5EnJUSF81W1--99">
          <mxGeometry relative="1" as="geometry" />
        </mxCell>
        <mxCell id="urim3Smq5EnJUSF81W1--96" value="&lt;span style=&quot;font-size: 12px;&quot;&gt;更新关联任务状态为验收未通过&lt;/span&gt;&lt;div&gt;&lt;span style=&quot;font-size: 12px;&quot;&gt;删除任务与计划关系&lt;/span&gt;&lt;/div&gt;" style="whiteSpace=wrap;html=1;fontSize=8;fontFamily=Verdana;rounded=0;shadow=0;labelBackgroundColor=none;strokeWidth=1;" vertex="1" parent="urim3Smq5EnJUSF81W1--39">
          <mxGeometry x="30" y="380" width="100" height="60" as="geometry" />
        </mxCell>
        <mxCell id="urim3Smq5EnJUSF81W1--102" style="edgeStyle=orthogonalEdgeStyle;rounded=0;orthogonalLoop=1;jettySize=auto;html=1;exitX=0.5;exitY=1;exitDx=0;exitDy=0;entryX=0.5;entryY=0;entryDx=0;entryDy=0;" edge="1" parent="urim3Smq5EnJUSF81W1--39" source="urim3Smq5EnJUSF81W1--99" target="urim3Smq5EnJUSF81W1--101">
          <mxGeometry relative="1" as="geometry" />
        </mxCell>
        <mxCell id="urim3Smq5EnJUSF81W1--99" value="&lt;span style=&quot;font-size: 12px;&quot;&gt;删除&lt;/span&gt;&lt;div&gt;&lt;span style=&quot;font-size: 12px;&quot;&gt;检修派发关系记录&lt;/span&gt;&lt;/div&gt;" style="whiteSpace=wrap;html=1;fontSize=8;fontFamily=Verdana;rounded=0;shadow=0;labelBackgroundColor=none;strokeWidth=1;" vertex="1" parent="urim3Smq5EnJUSF81W1--39">
          <mxGeometry x="30" y="480" width="100" height="60" as="geometry" />
        </mxCell>
        <mxCell id="urim3Smq5EnJUSF81W1--104" style="edgeStyle=orthogonalEdgeStyle;rounded=0;orthogonalLoop=1;jettySize=auto;html=1;exitX=0.5;exitY=1;exitDx=0;exitDy=0;entryX=0.5;entryY=0;entryDx=0;entryDy=0;" edge="1" parent="urim3Smq5EnJUSF81W1--39" source="urim3Smq5EnJUSF81W1--101" target="urim3Smq5EnJUSF81W1--103">
          <mxGeometry relative="1" as="geometry" />
        </mxCell>
        <mxCell id="urim3Smq5EnJUSF81W1--101" value="&lt;span style=&quot;font-size: 12px;&quot;&gt;删除&lt;/span&gt;&lt;div&gt;&lt;span style=&quot;font-size: 12px;&quot;&gt;检修派发关系记录&lt;/span&gt;&lt;/div&gt;" style="whiteSpace=wrap;html=1;fontSize=8;fontFamily=Verdana;rounded=0;shadow=0;labelBackgroundColor=none;strokeWidth=1;" vertex="1" parent="urim3Smq5EnJUSF81W1--39">
          <mxGeometry x="30" y="580" width="100" height="60" as="geometry" />
        </mxCell>
        <mxCell id="urim3Smq5EnJUSF81W1--103" value="&lt;span style=&quot;font-size: 12px; background-color: transparent; color: light-dark(rgb(0, 0, 0), rgb(255, 255, 255));&quot;&gt;发送消息到mq&lt;/span&gt;" style="whiteSpace=wrap;html=1;fontSize=8;fontFamily=Verdana;rounded=0;shadow=0;labelBackgroundColor=none;strokeWidth=1;" vertex="1" parent="urim3Smq5EnJUSF81W1--39">
          <mxGeometry x="30" y="680" width="100" height="60" as="geometry" />
        </mxCell>
        <mxCell id="urim3Smq5EnJUSF81W1--45" value="取消周计划" style="swimlane;html=1;startSize=20;" vertex="1" parent="urim3Smq5EnJUSF81W1--1">
          <mxGeometry x="640" y="20" width="160" height="1220" as="geometry" />
        </mxCell>
        <mxCell id="urim3Smq5EnJUSF81W1--46" style="edgeStyle=orthogonalEdgeStyle;rounded=0;orthogonalLoop=1;jettySize=auto;html=1;exitX=0.5;exitY=1;exitDx=0;exitDy=0;entryX=0.5;entryY=0;entryDx=0;entryDy=0;" edge="1" parent="urim3Smq5EnJUSF81W1--45">
          <mxGeometry relative="1" as="geometry">
            <mxPoint x="80" y="230" as="sourcePoint" />
            <mxPoint x="80" y="270" as="targetPoint" />
          </mxGeometry>
        </mxCell>
        <mxCell id="urim3Smq5EnJUSF81W1--115" value="查到" style="edgeLabel;html=1;align=center;verticalAlign=middle;resizable=0;points=[];" vertex="1" connectable="0" parent="urim3Smq5EnJUSF81W1--46">
          <mxGeometry x="-0.3176" y="-1" relative="1" as="geometry">
            <mxPoint as="offset" />
          </mxGeometry>
        </mxCell>
        <mxCell id="urim3Smq5EnJUSF81W1--48" style="edgeStyle=orthogonalEdgeStyle;rounded=0;orthogonalLoop=1;jettySize=auto;html=1;exitX=0.5;exitY=1;exitDx=0;exitDy=0;entryX=0.5;entryY=0;entryDx=0;entryDy=0;" edge="1" parent="urim3Smq5EnJUSF81W1--45" target="urim3Smq5EnJUSF81W1--51">
          <mxGeometry relative="1" as="geometry">
            <mxPoint x="80" y="330" as="sourcePoint" />
          </mxGeometry>
        </mxCell>
        <mxCell id="urim3Smq5EnJUSF81W1--119" value="是" style="edgeLabel;html=1;align=center;verticalAlign=middle;resizable=0;points=[];" vertex="1" connectable="0" parent="urim3Smq5EnJUSF81W1--48">
          <mxGeometry x="0.2317" relative="1" as="geometry">
            <mxPoint as="offset" />
          </mxGeometry>
        </mxCell>
        <mxCell id="urim3Smq5EnJUSF81W1--50" style="edgeStyle=orthogonalEdgeStyle;rounded=0;orthogonalLoop=1;jettySize=auto;html=1;exitX=0.5;exitY=1;exitDx=0;exitDy=0;entryX=0.5;entryY=0;entryDx=0;entryDy=0;" edge="1" parent="urim3Smq5EnJUSF81W1--45" source="urim3Smq5EnJUSF81W1--51" target="urim3Smq5EnJUSF81W1--52">
          <mxGeometry relative="1" as="geometry" />
        </mxCell>
        <mxCell id="urim3Smq5EnJUSF81W1--51" value="&lt;span style=&quot;font-size: 12px;&quot;&gt;更新&lt;/span&gt;&lt;span style=&quot;font-size: 12px; background-color: transparent; color: light-dark(rgb(0, 0, 0), rgb(255, 255, 255));&quot;&gt;计划的&lt;/span&gt;&lt;div&gt;&lt;span style=&quot;font-size: 12px;&quot;&gt;状态为已取消&lt;/span&gt;&lt;/div&gt;" style="whiteSpace=wrap;html=1;fontSize=8;fontFamily=Verdana;rounded=0;shadow=0;labelBackgroundColor=none;strokeWidth=1;" vertex="1" parent="urim3Smq5EnJUSF81W1--45">
          <mxGeometry x="30" y="380" width="100" height="60" as="geometry" />
        </mxCell>
        <mxCell id="urim3Smq5EnJUSF81W1--121" style="edgeStyle=orthogonalEdgeStyle;rounded=0;orthogonalLoop=1;jettySize=auto;html=1;exitX=0.5;exitY=1;exitDx=0;exitDy=0;entryX=0.5;entryY=0;entryDx=0;entryDy=0;" edge="1" parent="urim3Smq5EnJUSF81W1--45" source="urim3Smq5EnJUSF81W1--52" target="urim3Smq5EnJUSF81W1--120">
          <mxGeometry relative="1" as="geometry" />
        </mxCell>
        <mxCell id="urim3Smq5EnJUSF81W1--52" value="&lt;span style=&quot;font-size: 12px;&quot;&gt;新增&lt;/span&gt;&lt;div&gt;&lt;span style=&quot;font-size: 12px;&quot;&gt;检修计划变更记录&lt;/span&gt;&lt;/div&gt;" style="whiteSpace=wrap;html=1;fontSize=8;fontFamily=Verdana;rounded=0;shadow=0;labelBackgroundColor=none;strokeWidth=1;" vertex="1" parent="urim3Smq5EnJUSF81W1--45">
          <mxGeometry x="30" y="470" width="100" height="60" as="geometry" />
        </mxCell>
        <mxCell id="urim3Smq5EnJUSF81W1--111" style="edgeStyle=orthogonalEdgeStyle;rounded=0;orthogonalLoop=1;jettySize=auto;html=1;exitX=0;exitY=0.5;exitDx=0;exitDy=0;" edge="1" parent="urim3Smq5EnJUSF81W1--45" source="urim3Smq5EnJUSF81W1--110">
          <mxGeometry relative="1" as="geometry">
            <mxPoint x="-150" y="970" as="targetPoint" />
            <Array as="points">
              <mxPoint x="10" y="198" />
              <mxPoint x="10" y="970" />
            </Array>
          </mxGeometry>
        </mxCell>
        <mxCell id="urim3Smq5EnJUSF81W1--112" value="&lt;font style=&quot;font-size: 10px;&quot;&gt;未查到&lt;/font&gt;" style="edgeLabel;html=1;align=center;verticalAlign=middle;resizable=0;points=[];" vertex="1" connectable="0" parent="urim3Smq5EnJUSF81W1--111">
          <mxGeometry x="-0.9246" y="1" relative="1" as="geometry">
            <mxPoint x="9" as="offset" />
          </mxGeometry>
        </mxCell>
        <mxCell id="urim3Smq5EnJUSF81W1--110" value="&lt;span style=&quot;font-size: 12px;&quot;&gt;查询&lt;/span&gt;&lt;span style=&quot;font-size: 12px; background-color: transparent; color: light-dark(rgb(0, 0, 0), rgb(255, 255, 255));&quot;&gt;计划&lt;/span&gt;&lt;div&gt;&lt;span style=&quot;font-size: 12px; background-color: transparent; color: light-dark(rgb(0, 0, 0), rgb(255, 255, 255));&quot;&gt;对应的工作票&lt;/span&gt;&lt;/div&gt;" style="rhombus;whiteSpace=wrap;html=1;rounded=0;shadow=0;labelBackgroundColor=none;strokeWidth=1;fontFamily=Verdana;fontSize=8;align=center;" vertex="1" parent="urim3Smq5EnJUSF81W1--45">
          <mxGeometry x="30" y="160" width="100" height="75" as="geometry" />
        </mxCell>
        <mxCell id="urim3Smq5EnJUSF81W1--117" style="edgeStyle=orthogonalEdgeStyle;rounded=0;orthogonalLoop=1;jettySize=auto;html=1;exitX=0;exitY=0.5;exitDx=0;exitDy=0;" edge="1" parent="urim3Smq5EnJUSF81W1--45" source="urim3Smq5EnJUSF81W1--116">
          <mxGeometry relative="1" as="geometry">
            <mxPoint x="10" y="307.3529411764706" as="targetPoint" />
          </mxGeometry>
        </mxCell>
        <mxCell id="urim3Smq5EnJUSF81W1--116" value="&lt;span style=&quot;font-size: 12px;&quot;&gt;工作票状态&lt;/span&gt;&lt;div&gt;&lt;span style=&quot;font-size: 12px;&quot;&gt;是否为新建&lt;/span&gt;&lt;/div&gt;" style="rhombus;whiteSpace=wrap;html=1;rounded=0;shadow=0;labelBackgroundColor=none;strokeWidth=1;fontFamily=Verdana;fontSize=8;align=center;" vertex="1" parent="urim3Smq5EnJUSF81W1--45">
          <mxGeometry x="30" y="270" width="100" height="75" as="geometry" />
        </mxCell>
        <mxCell id="urim3Smq5EnJUSF81W1--118" value="否" style="edgeLabel;html=1;align=center;verticalAlign=middle;resizable=0;points=[];" vertex="1" connectable="0" parent="urim3Smq5EnJUSF81W1--45">
          <mxGeometry x="20" y="320.0033333333334" as="geometry" />
        </mxCell>
        <mxCell id="urim3Smq5EnJUSF81W1--122" style="edgeStyle=orthogonalEdgeStyle;rounded=0;orthogonalLoop=1;jettySize=auto;html=1;exitX=0;exitY=0.5;exitDx=0;exitDy=0;" edge="1" parent="urim3Smq5EnJUSF81W1--45" source="urim3Smq5EnJUSF81W1--120">
          <mxGeometry relative="1" as="geometry">
            <mxPoint x="10" y="607.3529411764707" as="targetPoint" />
          </mxGeometry>
        </mxCell>
        <mxCell id="urim3Smq5EnJUSF81W1--130" style="edgeStyle=orthogonalEdgeStyle;rounded=0;orthogonalLoop=1;jettySize=auto;html=1;exitX=0.5;exitY=1;exitDx=0;exitDy=0;entryX=0.5;entryY=0;entryDx=0;entryDy=0;" edge="1" parent="urim3Smq5EnJUSF81W1--45" source="urim3Smq5EnJUSF81W1--120" target="urim3Smq5EnJUSF81W1--126">
          <mxGeometry relative="1" as="geometry" />
        </mxCell>
        <mxCell id="urim3Smq5EnJUSF81W1--134" value="查到" style="edgeLabel;html=1;align=center;verticalAlign=middle;resizable=0;points=[];" vertex="1" connectable="0" parent="urim3Smq5EnJUSF81W1--130">
          <mxGeometry x="-0.1704" relative="1" as="geometry">
            <mxPoint as="offset" />
          </mxGeometry>
        </mxCell>
        <mxCell id="urim3Smq5EnJUSF81W1--120" value="&lt;span style=&quot;font-size: 12px;&quot;&gt;查询&lt;/span&gt;&lt;div&gt;&lt;span style=&quot;font-size: 12px;&quot;&gt;计划的&lt;/span&gt;&lt;span style=&quot;font-size: 12px; background-color: transparent; color: light-dark(rgb(0, 0, 0), rgb(255, 255, 255));&quot;&gt;关联任务&lt;/span&gt;&lt;/div&gt;" style="rhombus;whiteSpace=wrap;html=1;rounded=0;shadow=0;labelBackgroundColor=none;strokeWidth=1;fontFamily=Verdana;fontSize=8;align=center;" vertex="1" parent="urim3Smq5EnJUSF81W1--45">
          <mxGeometry x="30" y="570" width="100" height="75" as="geometry" />
        </mxCell>
        <mxCell id="urim3Smq5EnJUSF81W1--123" value="&lt;font style=&quot;font-size: 10px;&quot;&gt;未查到&lt;/font&gt;" style="edgeLabel;html=1;align=center;verticalAlign=middle;resizable=0;points=[];" vertex="1" connectable="0" parent="urim3Smq5EnJUSF81W1--45">
          <mxGeometry x="20" y="620.0033333333333" as="geometry" />
        </mxCell>
        <mxCell id="urim3Smq5EnJUSF81W1--131" style="edgeStyle=orthogonalEdgeStyle;rounded=0;orthogonalLoop=1;jettySize=auto;html=1;exitX=0.5;exitY=1;exitDx=0;exitDy=0;" edge="1" parent="urim3Smq5EnJUSF81W1--45" source="urim3Smq5EnJUSF81W1--126" target="urim3Smq5EnJUSF81W1--127">
          <mxGeometry relative="1" as="geometry" />
        </mxCell>
        <mxCell id="urim3Smq5EnJUSF81W1--126" value="&lt;span style=&quot;font-size: 12px;&quot;&gt;更新关联任务状态为验收未通过&lt;/span&gt;&lt;div&gt;&lt;span style=&quot;font-size: 12px;&quot;&gt;删除任务与计划关系&lt;/span&gt;&lt;/div&gt;" style="whiteSpace=wrap;html=1;fontSize=8;fontFamily=Verdana;rounded=0;shadow=0;labelBackgroundColor=none;strokeWidth=1;" vertex="1" parent="urim3Smq5EnJUSF81W1--45">
          <mxGeometry x="30" y="690" width="100" height="60" as="geometry" />
        </mxCell>
        <mxCell id="urim3Smq5EnJUSF81W1--132" style="edgeStyle=orthogonalEdgeStyle;rounded=0;orthogonalLoop=1;jettySize=auto;html=1;exitX=0.5;exitY=1;exitDx=0;exitDy=0;entryX=0.5;entryY=0;entryDx=0;entryDy=0;" edge="1" parent="urim3Smq5EnJUSF81W1--45" source="urim3Smq5EnJUSF81W1--127" target="urim3Smq5EnJUSF81W1--128">
          <mxGeometry relative="1" as="geometry" />
        </mxCell>
        <mxCell id="urim3Smq5EnJUSF81W1--127" value="&lt;span style=&quot;font-size: 12px;&quot;&gt;删除&lt;/span&gt;&lt;div&gt;&lt;span style=&quot;font-size: 12px;&quot;&gt;检修派发关系记录&lt;/span&gt;&lt;/div&gt;" style="whiteSpace=wrap;html=1;fontSize=8;fontFamily=Verdana;rounded=0;shadow=0;labelBackgroundColor=none;strokeWidth=1;" vertex="1" parent="urim3Smq5EnJUSF81W1--45">
          <mxGeometry x="30" y="790" width="100" height="60" as="geometry" />
        </mxCell>
        <mxCell id="urim3Smq5EnJUSF81W1--133" style="edgeStyle=orthogonalEdgeStyle;rounded=0;orthogonalLoop=1;jettySize=auto;html=1;exitX=0.5;exitY=1;exitDx=0;exitDy=0;" edge="1" parent="urim3Smq5EnJUSF81W1--45" source="urim3Smq5EnJUSF81W1--128" target="urim3Smq5EnJUSF81W1--129">
          <mxGeometry relative="1" as="geometry" />
        </mxCell>
        <mxCell id="urim3Smq5EnJUSF81W1--128" value="&lt;span style=&quot;font-size: 12px;&quot;&gt;删除&lt;/span&gt;&lt;div&gt;&lt;span style=&quot;font-size: 12px;&quot;&gt;检修派发关系记录&lt;/span&gt;&lt;/div&gt;" style="whiteSpace=wrap;html=1;fontSize=8;fontFamily=Verdana;rounded=0;shadow=0;labelBackgroundColor=none;strokeWidth=1;" vertex="1" parent="urim3Smq5EnJUSF81W1--45">
          <mxGeometry x="30" y="890" width="100" height="60" as="geometry" />
        </mxCell>
        <mxCell id="urim3Smq5EnJUSF81W1--129" value="&lt;span style=&quot;font-size: 12px; background-color: transparent; color: light-dark(rgb(0, 0, 0), rgb(255, 255, 255));&quot;&gt;发送消息到mq&lt;/span&gt;" style="whiteSpace=wrap;html=1;fontSize=8;fontFamily=Verdana;rounded=0;shadow=0;labelBackgroundColor=none;strokeWidth=1;" vertex="1" parent="urim3Smq5EnJUSF81W1--45">
          <mxGeometry x="30" y="990" width="100" height="60" as="geometry" />
        </mxCell>
        <mxCell id="urim3Smq5EnJUSF81W1--53" value="" style="edgeStyle=orthogonalEdgeStyle;rounded=0;orthogonalLoop=1;jettySize=auto;html=1;" edge="1" parent="urim3Smq5EnJUSF81W1--1" source="urim3Smq5EnJUSF81W1--5">
          <mxGeometry relative="1" as="geometry">
            <mxPoint x="190" y="217.5" as="targetPoint" />
          </mxGeometry>
        </mxCell>
        <mxCell id="urim3Smq5EnJUSF81W1--54" value="是" style="edgeLabel;html=1;align=center;verticalAlign=middle;resizable=0;points=[];" vertex="1" connectable="0" parent="urim3Smq5EnJUSF81W1--53">
          <mxGeometry x="-0.5771" relative="1" as="geometry">
            <mxPoint as="offset" />
          </mxGeometry>
        </mxCell>
        <mxCell id="urim3Smq5EnJUSF81W1--55" value="返回结果" style="swimlane;html=1;startSize=20;" vertex="1" parent="urim3Smq5EnJUSF81W1--1">
          <mxGeometry x="800" y="20" width="160" height="1220" as="geometry" />
        </mxCell>
        <mxCell id="urim3Smq5EnJUSF81W1--62" value="&lt;span style=&quot;font-size: 12px;&quot;&gt;成功返回&lt;/span&gt;" style="whiteSpace=wrap;html=1;fontSize=8;fontFamily=Verdana;rounded=0;shadow=0;labelBackgroundColor=none;strokeWidth=1;" vertex="1" parent="urim3Smq5EnJUSF81W1--55">
          <mxGeometry x="30" y="1140" width="100" height="60" as="geometry" />
        </mxCell>
        <mxCell id="urim3Smq5EnJUSF81W1--66" style="edgeStyle=orthogonalEdgeStyle;rounded=0;orthogonalLoop=1;jettySize=auto;html=1;entryX=0.5;entryY=0;entryDx=0;entryDy=0;exitX=0.5;exitY=1;exitDx=0;exitDy=0;" edge="1" parent="urim3Smq5EnJUSF81W1--1" target="urim3Smq5EnJUSF81W1--44">
          <mxGeometry relative="1" as="geometry">
            <mxPoint x="400" y="870" as="sourcePoint" />
            <Array as="points">
              <mxPoint x="400" y="910" />
              <mxPoint x="470" y="910" />
              <mxPoint x="470" y="150" />
              <mxPoint x="560" y="150" />
            </Array>
          </mxGeometry>
        </mxCell>
        <mxCell id="urim3Smq5EnJUSF81W1--70" style="edgeStyle=orthogonalEdgeStyle;rounded=0;orthogonalLoop=1;jettySize=auto;html=1;exitX=1;exitY=0.5;exitDx=0;exitDy=0;entryX=0.5;entryY=0;entryDx=0;entryDy=0;" edge="1" parent="urim3Smq5EnJUSF81W1--1" source="urim3Smq5EnJUSF81W1--16" target="urim3Smq5EnJUSF81W1--69">
          <mxGeometry relative="1" as="geometry">
            <Array as="points">
              <mxPoint x="310" y="328" />
              <mxPoint x="310" y="140" />
              <mxPoint x="400" y="140" />
            </Array>
          </mxGeometry>
        </mxCell>
        <mxCell id="urim3Smq5EnJUSF81W1--71" value="&lt;font style=&quot;font-size: 10px;&quot;&gt;是&lt;/font&gt;" style="edgeLabel;html=1;align=center;verticalAlign=middle;resizable=0;points=[];" vertex="1" connectable="0" parent="urim3Smq5EnJUSF81W1--70">
          <mxGeometry x="-0.9473" relative="1" as="geometry">
            <mxPoint as="offset" />
          </mxGeometry>
        </mxCell>
        <mxCell id="urim3Smq5EnJUSF81W1--107" style="edgeStyle=orthogonalEdgeStyle;rounded=0;orthogonalLoop=1;jettySize=auto;html=1;exitX=1;exitY=0.5;exitDx=0;exitDy=0;" edge="1" parent="urim3Smq5EnJUSF81W1--1" source="urim3Smq5EnJUSF81W1--17">
          <mxGeometry relative="1" as="geometry">
            <mxPoint x="720" y="180" as="targetPoint" />
            <Array as="points">
              <mxPoint x="300" y="443" />
              <mxPoint x="300" y="120" />
              <mxPoint x="720" y="120" />
            </Array>
          </mxGeometry>
        </mxCell>
        <mxCell id="urim3Smq5EnJUSF81W1--109" value="是" style="edgeLabel;html=1;align=center;verticalAlign=middle;resizable=0;points=[];" vertex="1" connectable="0" parent="urim3Smq5EnJUSF81W1--107">
          <mxGeometry x="-0.9757" y="-1" relative="1" as="geometry">
            <mxPoint as="offset" />
          </mxGeometry>
        </mxCell>
        <mxCell id="urim3Smq5EnJUSF81W1--136" style="edgeStyle=orthogonalEdgeStyle;rounded=0;orthogonalLoop=1;jettySize=auto;html=1;exitX=0.5;exitY=1;exitDx=0;exitDy=0;" edge="1" parent="urim3Smq5EnJUSF81W1--1" source="urim3Smq5EnJUSF81W1--129" target="urim3Smq5EnJUSF81W1--62">
          <mxGeometry relative="1" as="geometry">
            <Array as="points">
              <mxPoint x="720" y="1120" />
              <mxPoint x="880" y="1120" />
            </Array>
          </mxGeometry>
        </mxCell>
        <mxCell id="urim3Smq5EnJUSF81W1--137" style="edgeStyle=orthogonalEdgeStyle;rounded=0;orthogonalLoop=1;jettySize=auto;html=1;exitX=0.5;exitY=1;exitDx=0;exitDy=0;" edge="1" parent="urim3Smq5EnJUSF81W1--1" source="urim3Smq5EnJUSF81W1--103" target="urim3Smq5EnJUSF81W1--62">
          <mxGeometry relative="1" as="geometry">
            <Array as="points">
              <mxPoint x="560" y="1120" />
              <mxPoint x="880" y="1120" />
            </Array>
          </mxGeometry>
        </mxCell>
        <mxCell id="urim3Smq5EnJUSF81W1--138" style="edgeStyle=orthogonalEdgeStyle;rounded=0;orthogonalLoop=1;jettySize=auto;html=1;exitX=0.5;exitY=1;exitDx=0;exitDy=0;entryX=0.5;entryY=0;entryDx=0;entryDy=0;" edge="1" parent="urim3Smq5EnJUSF81W1--1" source="urim3Smq5EnJUSF81W1--17" target="urim3Smq5EnJUSF81W1--62">
          <mxGeometry relative="1" as="geometry">
            <Array as="points">
              <mxPoint x="240" y="1120" />
              <mxPoint x="880" y="1120" />
            </Array>
          </mxGeometry>
        </mxCell>
        <mxCell id="urim3Smq5EnJUSF81W1--139" value="否" style="edgeLabel;html=1;align=center;verticalAlign=middle;resizable=0;points=[];" vertex="1" connectable="0" parent="urim3Smq5EnJUSF81W1--138">
          <mxGeometry x="-0.9766" y="-1" relative="1" as="geometry">
            <mxPoint as="offset" />
          </mxGeometry>
        </mxCell>
      </root>
    </mxGraphModel>
  </diagram>
</mxfile>
